<svg width="19" height="23" viewBox="0 0 19 23" fill="none" xmlns="http://www.w3.org/2000/svg">
<path fill-rule="evenodd" clip-rule="evenodd" d="M6.64678 5.17217C6.36325 5.17217 6.13372 4.93339 6.13372 4.65484C6.13372 4.37629 6.36325 4.13753 6.64678 4.13753C6.94379 4.13753 7.17332 4.37629 7.17332 4.65484C7.17332 4.93339 6.94379 5.17217 6.64678 5.17217ZM12.3441 5.17217C12.0471 5.17217 11.8176 4.93339 11.8176 4.65484C11.8176 4.37629 12.0471 4.13753 12.3441 4.13753C12.6276 4.13753 12.8571 4.37629 12.8571 4.65484C12.8571 4.93339 12.6276 5.17217 12.3441 5.17217ZM1.38148 7.61293C0.611911 7.61293 -0.00909424 8.22316 -0.00909424 8.9659V14.6698C-0.00909424 15.426 0.611911 16.0362 1.38148 16.0362C2.15097 16.0362 2.75853 15.426 2.75853 14.6698V8.9659C2.75853 8.22316 2.13752 7.61293 1.38148 7.61293ZM15.6922 7.86492H3.29857V16.6995C3.29857 17.5086 3.96014 18.1586 4.78366 18.1586H5.7827L5.79621 21.1698C5.79621 21.9259 6.41728 22.5362 7.17332 22.5362C7.94283 22.5362 8.56387 21.9259 8.56387 21.1698V18.1586H10.427V21.1698C10.427 21.9259 11.048 22.5362 11.8176 22.5362C12.5871 22.5362 13.2081 21.9259 13.2081 21.1698V18.1586H14.2207C15.0307 18.1586 15.6922 17.5086 15.6922 16.6995V7.86492ZM12.5601 2.49263L13.5187 0.754861C13.5726 0.662112 13.5457 0.542656 13.4512 0.489668C13.3566 0.449732 13.2351 0.476314 13.1812 0.569213L12.209 2.32019C11.3855 1.96195 10.4675 1.7631 9.49542 1.7631C8.52337 1.7631 7.6053 1.96195 6.78177 2.32019L5.80972 0.569213C5.75571 0.476314 5.63419 0.449732 5.5397 0.489668C5.44517 0.542656 5.41818 0.662112 5.47222 0.754861L6.43073 2.49263C4.52717 3.44775 3.2446 5.27828 3.2446 7.38734H15.7328C15.7328 5.27828 14.4502 3.44775 12.5601 2.49263ZM19 8.9659C19 8.20981 18.3789 7.61293 17.6094 7.61293C16.8534 7.61293 16.2323 8.20981 16.2323 8.9659V14.6698C16.2323 15.426 16.8534 16.0362 17.6094 16.0362C18.3789 16.0362 19 15.426 19 14.6698V8.9659Z" fill="white"/>
</svg>
